<svg width="25" height="24" viewBox="0 0 25 24" fill="none" xmlns="http://www.w3.org/2000/svg">
<path d="M20.4689 2.11084H4.53143C3.43315 2.11084 2.53925 3.00475 2.53925 4.10303V14.8843C2.53925 15.9826 3.43315 16.8765 4.53143 16.8765H9.99471V20.7174H7.30175C6.97831 20.7174 6.71581 20.9799 6.71581 21.3033C6.71581 21.6268 6.97831 21.8893 7.30175 21.8893H17.6986C18.0221 21.8893 18.2846 21.6268 18.2846 21.3033C18.2846 20.9799 18.0221 20.7174 17.6986 20.7174H15.0057V16.8765H20.4689C21.5672 16.8765 22.4611 15.9826 22.4611 14.8843V4.10303C22.4611 3.00475 21.5672 2.11084 20.4689 2.11084ZM19.7794 9.96521C19.7794 10.6219 19.2469 11.1544 18.5902 11.1544C17.9335 11.1544 17.401 10.6219 17.401 9.96521C17.401 9.3085 17.9335 8.776 18.5902 8.776C19.2469 8.776 19.7794 9.3085 19.7794 9.96521ZM13.651 12.6807C13.7199 12.8612 13.696 13.0637 13.5867 13.2226C13.4775 13.3819 13.2971 13.4771 13.1039 13.4771H11.8964C11.7033 13.4771 11.5228 13.3819 11.4136 13.2226C11.3044 13.0637 11.2805 12.8612 11.3494 12.6807L11.6667 11.8552C10.7888 12.2063 9.77815 11.5969 9.77815 10.4874C9.77815 9.2949 11.491 8.07146 12.1992 7.61678C12.3825 7.49912 12.6178 7.49912 12.8011 7.61678C13.5094 8.07146 15.2222 9.2949 15.2222 10.4874C15.2222 11.5969 14.2116 12.2063 13.3336 11.8552L13.651 12.6807ZM9.2555 5.15771C8.93206 5.15771 8.66956 4.89521 8.66956 4.57178C8.66956 4.24834 8.93206 3.98584 9.2555 3.98584H15.7449C16.0683 3.98584 16.3308 4.24834 16.3308 4.57178C16.3308 4.89521 16.0683 5.15771 15.7449 5.15771H9.2555ZM7.5994 9.96521C7.5994 10.6219 7.0669 11.1544 6.41018 11.1544C5.75346 11.1544 5.22096 10.6219 5.22096 9.96521C5.22096 9.3085 5.75346 8.776 6.41018 8.776C7.0669 8.776 7.5994 9.3085 7.5994 9.96521ZM13.8338 20.7174H11.1661V16.8765H13.8338V20.7174Z" fill="#FFCC00"/>
</svg>
