<svg width="25" height="24" viewBox="0 0 25 24" fill="none" xmlns="http://www.w3.org/2000/svg">
<path d="M22.1273 5.52052C21.84 5.02317 21.3764 4.66692 20.8214 4.51833L15.0407 2.96958C14.4857 2.82099 13.9064 2.89739 13.4085 3.18427C12.9112 3.47161 12.5549 3.9352 12.4064 4.4902L11.4323 8.12583H4.57636C3.47807 8.12583 2.58417 9.01974 2.58417 10.118V19.1124C2.58417 20.2107 3.47807 21.1046 4.57636 21.1046H19.3814C20.4801 21.1046 21.3735 20.2107 21.3735 19.1124V10.7677L22.342 7.1527C22.4906 6.5977 22.4142 6.01786 22.1273 5.52052ZM13.5379 4.79349C13.6054 4.54083 13.7676 4.32989 13.994 4.19911C14.2204 4.06833 14.4843 4.03364 14.737 4.10114L20.5176 5.64989C20.7703 5.71739 20.9812 5.87958 21.112 6.10598C21.2428 6.33239 21.2775 6.5963 21.21 6.84895L19.6612 12.6296C19.5937 12.8822 19.4315 13.0932 19.2051 13.224C18.9787 13.3547 18.7148 13.3894 18.4621 13.3219L12.6815 11.7732C12.4289 11.7057 12.2179 11.5435 12.0871 11.3171C11.9564 11.0907 11.9217 10.8268 11.9892 10.5741L13.5379 4.79349ZM6.92995 14.6147C5.74823 14.6147 4.78636 13.6533 4.78636 12.4711C4.78636 11.289 5.74823 10.328 6.92995 10.328C8.11167 10.328 9.07307 11.2894 9.07307 12.4711C9.07307 13.6529 8.11167 14.6147 6.92995 14.6147ZM7.94432 16.231C7.94432 16.5544 7.68182 16.8169 7.35839 16.8169H5.40042C5.07698 16.8169 4.81448 16.5544 4.81448 16.231C4.81448 15.9075 5.07698 15.645 5.40042 15.645H7.35839C7.68182 15.645 7.94432 15.9071 7.94432 16.231ZM5.40042 17.8754H10.1123C10.4362 17.8754 10.6982 18.1379 10.6982 18.4613C10.6982 18.7847 10.4362 19.0472 10.1123 19.0472H5.40042C5.07698 19.0472 4.81448 18.7852 4.81448 18.4613C4.81448 18.1374 5.07698 17.8754 5.40042 17.8754ZM9.13354 16.8169C8.80964 16.8169 8.54761 16.5544 8.54761 16.231C8.54761 15.9075 8.80964 15.645 9.13354 15.645H11.0915C11.4149 15.645 11.6774 15.9071 11.6774 16.231C11.6774 16.5549 11.4149 16.8169 11.0915 16.8169H9.13354ZM15.4106 16.231C15.4106 16.5544 15.1481 16.8169 14.8246 16.8169H12.8667C12.5428 16.8169 12.2807 16.5544 12.2807 16.231C12.2807 15.9075 12.5428 15.645 12.8667 15.645H14.8246C15.1481 15.645 15.4106 15.9071 15.4106 16.231ZM16.5998 15.645H18.5578C18.8812 15.645 19.1437 15.9071 19.1437 16.231C19.1437 16.5549 18.8812 16.8169 18.5578 16.8169H16.5998C16.2759 16.8169 16.0139 16.5544 16.0139 16.231C16.0139 15.9075 16.2759 15.645 16.5998 15.645Z" fill="#FFCC00"/>
<path d="M19.9293 7.91708C20.1265 7.18184 19.6902 6.42601 18.955 6.22888C18.2197 6.03175 17.4639 6.46798 17.2668 7.20322C17.0697 7.93845 17.5059 8.69429 18.2411 8.89142C18.9764 9.08855 19.7322 8.65232 19.9293 7.91708Z" fill="#FFCC00"/>
<path d="M15.4713 10.941C16.0658 10.4653 16.162 9.59781 15.6863 9.00338C15.2106 8.40895 14.3431 8.31269 13.7487 8.78839C13.1542 9.26409 13.058 10.1316 13.5337 10.726C14.0094 11.3205 14.8769 11.4167 15.4713 10.941Z" fill="#FFCC00"/>
</svg>
