<svg width="25" height="24" viewBox="0 0 25 24" fill="none" xmlns="http://www.w3.org/2000/svg">
<path d="M23.4848 14.3891C23.1975 13.8918 22.7339 13.5356 22.1789 13.387L18.5433 12.4129V3.75696C18.5433 2.65821 17.6494 1.76477 16.5511 1.76477H14.2823C14.2823 1.76477 14.2809 1.76477 14.2805 1.76477H10.7194C10.7194 1.76477 10.718 1.76477 10.7175 1.76477H8.44922C7.35094 1.76477 6.45703 2.65821 6.45703 3.75696V5.27946C3.61641 5.57383 1.39453 7.98133 1.39453 10.8979C1.39453 13.8145 3.61688 16.2224 6.45703 16.5163V20.2424C6.45703 21.3412 7.35094 22.2346 8.44922 22.2346H15.4556L19.5164 23.3226C19.7016 23.3723 19.8895 23.3966 20.0766 23.3966C20.4492 23.3966 20.8172 23.2987 21.1486 23.1074C21.6459 22.8201 22.0022 22.3565 22.1508 21.8015L23.6995 16.0209C23.8481 15.4659 23.7717 14.886 23.4848 14.3887V14.3891ZM20.6409 17.6226C19.9819 18.0032 19.1391 17.7773 18.7584 17.1182C18.3778 16.4587 18.6038 15.6159 19.2628 15.2352C19.9219 14.8546 20.7652 15.0806 21.1453 15.7396C21.5259 16.3991 21.3005 17.242 20.6409 17.6226ZM16.6514 19.926C15.9923 20.3066 15.1495 20.0807 14.7689 19.4216C14.3883 18.7621 14.6142 17.9193 15.2733 17.5387C15.9323 17.1581 16.7752 17.384 17.1558 18.0431C17.5364 18.7026 17.3105 19.5454 16.6514 19.926ZM5.50266 12.5413C5.36859 12.247 5.49891 11.8991 5.79328 11.7656C6.02531 11.6601 6.29016 11.7182 6.45703 11.8912C6.5025 11.9381 6.54094 11.9934 6.56953 12.0562C6.64453 12.2207 6.83484 12.3313 7.04297 12.3313C7.32188 12.3313 7.54922 12.1415 7.54922 11.9081C7.54922 11.5991 6.99703 11.4857 6.93422 11.474C6.76406 11.4416 6.60422 11.3952 6.45703 11.3362C5.78063 11.0657 5.36531 10.5313 5.36531 9.88868C5.36531 9.20477 5.82 8.62024 6.45703 8.39383V8.00899C6.45703 7.68555 6.71953 7.42305 7.04297 7.42305C7.36641 7.42305 7.62891 7.68555 7.62891 8.00899V8.39383C8.04984 8.54243 8.39906 8.84852 8.58375 9.25539C8.71781 9.54977 8.5875 9.89711 8.29266 10.0312C8.06063 10.1366 7.79578 10.0785 7.62891 9.90461C7.58344 9.85821 7.54547 9.8029 7.51688 9.74055C7.44188 9.57602 7.25156 9.4654 7.04297 9.4654C6.76406 9.4654 6.53719 9.65524 6.53719 9.88868C6.53719 10.1971 7.08938 10.3106 7.15219 10.3227C7.32234 10.3551 7.48172 10.401 7.62891 10.4606C8.30531 10.7306 8.72109 11.2649 8.72109 11.9081C8.72109 12.5915 8.26594 13.1765 7.62891 13.4029V13.7873C7.62891 14.1107 7.36688 14.3732 7.04297 14.3732C6.71906 14.3732 6.45703 14.1107 6.45703 13.7873V13.4029C6.03609 13.2538 5.68734 12.9477 5.50266 12.5413ZM7.62891 20.2429V16.5168C10.4695 16.2229 12.6919 13.8154 12.6919 10.8984C12.6919 7.98133 10.4695 5.57383 7.62891 5.27993V3.75743C7.62891 3.30508 7.99688 2.93711 8.44922 2.93711H10.1334V3.11946C10.1334 3.70118 10.6064 4.17415 11.1881 4.17415H13.8117C14.3934 4.17415 14.8664 3.70118 14.8664 3.11946V2.93711H16.5506C17.003 2.93711 17.3709 3.30508 17.3709 3.75743V12.0993L16.3973 11.8387C15.8423 11.6901 15.2625 11.7665 14.7652 12.0534C14.2678 12.3407 13.9116 12.8043 13.763 13.3593L12.2142 19.1399C12.0656 19.6949 12.142 20.2748 12.4289 20.7721C12.4889 20.8757 12.5564 20.9727 12.6309 21.0632H8.44875C7.99641 21.0632 7.62844 20.6952 7.62844 20.2429H7.62891Z" fill="#FFCC00"/>
</svg>
