<svg width="25" height="24" viewBox="0 0 25 24" fill="none" xmlns="http://www.w3.org/2000/svg">
<g clip-path="url(#clip0_353_3055)">
<path d="M23.7535 7.76006C24.0188 7.44459 24.1009 7.02225 23.9738 6.63037C23.8463 6.2385 23.5318 5.94506 23.132 5.84568L22.0496 5.57709C22.0459 5.57615 22.0431 5.57381 22.0412 5.571L21.4515 4.62459C21.2335 4.2749 20.8571 4.06631 20.4451 4.06631C20.0331 4.06631 19.6862 4.25943 19.4654 4.58521C19.1115 4.26318 18.6409 4.06631 18.1257 4.06631H16.6735C16.6801 3.91256 16.6599 3.75646 16.6107 3.60459C16.4706 3.17381 16.1246 2.85178 15.6854 2.74256L14.3917 2.42146C14.3584 2.41303 14.3302 2.3924 14.312 2.36334L13.607 1.23225C13.3674 0.847871 12.954 0.618652 12.5012 0.618652C12.0484 0.618652 11.6349 0.847871 11.3954 1.23225L10.6899 2.36334C10.6717 2.3924 10.6435 2.41303 10.6102 2.42146L9.3165 2.74256C8.87681 2.85178 8.53087 3.17381 8.39119 3.60459C8.34197 3.75646 8.32181 3.91256 8.32837 4.06631H6.87619C6.36103 4.06631 5.8904 4.26318 5.5365 4.58521C5.31525 4.25943 4.9529 4.06631 4.55681 4.06631C4.14478 4.06631 3.76837 4.2749 3.5504 4.62459L2.96072 5.57053C2.95884 5.57381 2.95556 5.57568 2.95228 5.57662L1.86994 5.84521C1.47009 5.94459 1.15509 6.23756 1.02759 6.6299C0.900092 7.02178 0.982592 7.44412 1.2479 7.75959L1.96556 8.61318C1.9679 8.616 1.96884 8.61975 1.96884 8.62303L1.89009 9.73537C1.86103 10.1465 2.04244 10.5365 2.37619 10.7788C2.5829 10.9293 2.82572 11.0062 3.07134 11.0062C3.22181 11.0062 3.37322 10.9771 3.51853 10.9185L4.55212 10.4999C4.5554 10.4985 4.55915 10.4985 4.56244 10.4999L4.88447 10.6302V11.9338H4.59197C3.46087 11.9338 2.54072 12.854 2.54072 13.9851V18.8886C2.54072 20.0197 3.46087 20.9399 4.59197 20.9399H4.88447V21.389C4.88447 22.4872 5.77837 23.3811 6.87665 23.3811H18.1267C19.2249 23.3811 20.1188 22.4872 20.1188 21.389V20.9399H20.4113C21.5424 20.9399 22.4626 20.0197 22.4626 18.8886V13.9851C22.4626 12.854 21.5424 11.9338 20.4113 11.9338H20.1188V10.6302L20.4409 10.4999C20.4442 10.4985 20.4479 10.4985 20.4512 10.4999L21.4848 10.9185C21.6296 10.9771 21.7815 11.0062 21.932 11.0062C22.1776 11.0062 22.4204 10.9288 22.6271 10.7788C22.9604 10.5365 23.1423 10.1465 23.1132 9.73537L23.0345 8.62303C23.0345 8.61928 23.0354 8.616 23.0377 8.61318L23.7554 7.75959L23.7535 7.76006ZM7.26994 14.353C7.57603 14.2485 7.90931 14.4121 8.01337 14.7187L8.50275 16.1521L8.99166 14.7187C9.07228 14.481 9.29541 14.3216 9.54619 14.3216C9.79697 14.3216 10.0196 14.481 10.1007 14.7187L10.5896 16.1521L11.0785 14.7187C11.1831 14.4121 11.5159 14.2485 11.8224 14.353C12.1285 14.4576 12.2921 14.7904 12.1876 15.0969L11.1442 18.156C11.0631 18.3932 10.8404 18.5526 10.5896 18.5526C10.3388 18.5526 10.1162 18.3932 10.0351 18.156L9.54619 16.7226L9.05728 18.156C8.97619 18.3932 8.75306 18.5526 8.50275 18.5526C8.25244 18.5526 8.02884 18.3932 7.94775 18.156L6.90431 15.0969C6.79978 14.7904 6.96337 14.4576 7.26994 14.353ZM12.5485 17.9666V14.9076C12.5485 14.5841 12.8106 14.3216 13.1345 14.3216C13.4584 14.3216 13.7204 14.5841 13.7204 14.9076V17.9666C13.7204 18.2905 13.4579 18.5526 13.1345 18.5526C12.811 18.5526 12.5485 18.2905 12.5485 17.9666ZM17.5642 17.9666C17.5642 18.2221 17.3987 18.448 17.1549 18.5254C17.0968 18.5436 17.0373 18.5526 16.9782 18.5526C16.7912 18.5526 16.6112 18.463 16.4992 18.3041L15.4079 16.7563V17.9666C15.4079 18.2905 15.1459 18.5526 14.822 18.5526C14.4981 18.5526 14.236 18.2905 14.236 17.9666V14.9076C14.236 14.6521 14.4015 14.4262 14.6452 14.3493C14.8885 14.2719 15.1538 14.3615 15.301 14.5701L16.3923 16.1183V14.9076C16.3923 14.5841 16.6543 14.3216 16.9782 14.3216C17.3021 14.3216 17.5642 14.5841 17.5642 14.9076V17.9666ZM18.9451 21.389C18.9451 21.8413 18.5771 22.2093 18.1248 22.2093H6.87478C6.42244 22.2093 6.05447 21.8413 6.05447 21.389V20.9399H18.9451V21.389ZM6.05447 11.9343V11.0062C6.2954 11.0033 6.53353 10.9269 6.7365 10.7793C7.06978 10.5369 7.25165 10.1469 7.22259 9.73584L7.14384 8.6235C7.14384 8.61975 7.14478 8.61646 7.14712 8.61365L7.86478 7.76006C8.13009 7.44459 8.21212 7.02225 8.08509 6.63037C7.95759 6.2385 7.64306 5.94506 7.24275 5.84568L6.20447 5.58787C6.35306 5.37646 6.59822 5.23818 6.87525 5.23818H8.96212L9.49041 5.86631C9.51244 5.89256 9.52322 5.92584 9.52087 5.96006L9.42665 7.28943C9.39478 7.74131 9.594 8.16975 9.96056 8.436C10.3271 8.70225 10.7963 8.75943 11.2159 8.58928L12.451 8.08865C12.4829 8.076 12.5181 8.076 12.5495 8.08865L13.7846 8.58928C13.944 8.65396 14.1104 8.68584 14.2759 8.68584C14.5459 8.68584 14.8126 8.601 15.0399 8.436C15.4065 8.16975 15.6057 7.74131 15.5738 7.28943L15.4796 5.95959C15.4773 5.92537 15.4881 5.89209 15.5101 5.86584L16.0384 5.23771H18.1252C18.4027 5.23771 18.6474 5.37646 18.796 5.5874L17.7577 5.84521C17.3579 5.94459 17.0429 6.23756 16.9154 6.6299C16.7879 7.02178 16.8704 7.44412 17.1357 7.75959L17.8534 8.61318C17.8557 8.616 17.8571 8.61975 17.8567 8.62303L17.7779 9.73537C17.7488 10.1465 17.9302 10.5365 18.264 10.7788C18.467 10.9265 18.7046 11.0029 18.946 11.0057V11.9338H6.05447V11.9343Z" fill="#FFCC00"/>
<path d="M15.3779 9.71973H9.62256C9.29912 9.71973 9.03662 9.98223 9.03662 10.3057C9.03662 10.6291 9.29912 10.8916 9.62256 10.8916H15.3779C15.7013 10.8916 15.9638 10.6291 15.9638 10.3057C15.9638 9.98223 15.7013 9.71973 15.3779 9.71973Z" fill="#FFCC00"/>
</g>
<defs>
<clipPath id="clip0_353_3055">
<rect width="24" height="24" fill="white" transform="translate(0.5)"/>
</clipPath>
</defs>
</svg>
