<svg width="25" height="24" viewBox="0 0 25 24" fill="none" xmlns="http://www.w3.org/2000/svg">
<path d="M23.6826 4.37644C23.4168 3.91566 22.987 3.58566 22.4732 3.44831L15.4875 1.57613C14.4262 1.29206 13.3317 1.92394 13.0476 2.98519L12.5001 5.02847L11.9526 2.98519C11.6685 1.92394 10.574 1.29206 9.51276 1.57613L2.52698 3.44831C2.01323 3.58566 1.58339 3.91566 1.31761 4.37644C1.05136 4.83722 0.980577 5.37394 1.11839 5.88816L3.3023 14.0383C3.54042 14.9271 4.34761 15.5149 5.22698 15.5149C5.39714 15.5149 5.57011 15.4928 5.74214 15.4469L7.35698 15.0143V20.3411C7.35698 21.5271 8.32214 22.4922 9.50808 22.4922H15.4926C16.6785 22.4922 17.6437 21.5271 17.6437 20.3411V15.0143L19.2585 15.4469C19.4306 15.4928 19.6035 15.5149 19.7737 15.5149C20.6531 15.5149 21.4603 14.9271 21.6984 14.0383L23.8823 5.88816C24.0201 5.37394 23.9493 4.83722 23.6831 4.37644H23.6826ZM17.7942 11.3852C17.8143 11.5774 17.7389 11.7668 17.5921 11.8924C17.4848 11.9843 17.3493 12.033 17.2115 12.033C17.1609 12.033 17.1098 12.0264 17.0601 12.0128L15.8939 11.7002C15.7073 11.65 15.5578 11.5118 15.4931 11.3299C15.4289 11.148 15.4579 10.946 15.5714 10.7899L15.8062 10.4669C15.7321 10.4566 15.6585 10.4421 15.585 10.4224C15.1157 10.2968 14.7239 9.99582 14.481 9.57535C14.2382 9.15488 14.1735 8.66456 14.2992 8.19581C14.4248 7.72706 14.7257 7.33472 15.1462 7.09191C15.4054 6.94238 15.6904 6.86082 15.981 6.8491C15.9867 6.71691 16.0064 6.58425 16.0415 6.45347C16.1671 5.98425 16.4681 5.59238 16.8885 5.34957C17.309 5.10675 17.7993 5.04206 18.2681 5.16769C18.7373 5.29331 19.1292 5.59425 19.372 6.01472C19.6148 6.43519 19.6795 6.9255 19.5539 7.39425C19.5187 7.52503 19.4695 7.64972 19.4085 7.76738C19.6546 7.92253 19.8609 8.13581 20.0104 8.39503C20.2532 8.8155 20.3179 9.30581 20.1923 9.77456C20.0667 10.2433 19.7657 10.6357 19.3453 10.8785C19.065 11.0402 18.7542 11.1227 18.4392 11.1227C18.2812 11.1227 18.1223 11.1021 17.9657 11.0599C17.8926 11.0402 17.8214 11.0158 17.752 10.9877L17.7937 11.3847L17.7942 11.3852ZM10.1137 8.17613L8.97979 11.6599C8.91839 11.8483 8.76558 11.9932 8.57386 12.0443C8.52417 12.0578 8.47308 12.0644 8.42245 12.0644C8.27948 12.0644 8.13933 12.0119 8.03058 11.9139L5.30667 9.46425C5.13417 9.3091 5.06948 9.06722 5.1412 8.84691L6.27558 5.36363C6.33698 5.17472 6.48933 5.03035 6.68105 4.97878C6.8723 4.92769 7.07667 4.97644 7.22433 5.1091L9.94823 7.55878C10.1207 7.71394 10.1854 7.95581 10.1137 8.17613ZM16.4714 20.3411C16.4714 20.8811 16.0321 21.3203 15.4921 21.3203H9.50761C8.96761 21.3203 8.52839 20.8811 8.52839 20.3411V14.3566C8.52839 13.8166 8.96761 13.3774 9.50761 13.3774H15.4921C16.0321 13.3774 16.4714 13.8166 16.4714 14.3566V20.3411Z" fill="#FFCC00"/>
<path d="M14.1286 17.0984C14.8897 17.0984 15.5067 16.4813 15.5067 15.7202C15.5067 14.9591 14.8897 14.3421 14.1286 14.3421C13.3675 14.3421 12.7505 14.9591 12.7505 15.7202C12.7505 16.4813 13.3675 17.0984 14.1286 17.0984Z" fill="#FFCC00"/>
<path d="M10.8713 20.3557C11.6324 20.3557 12.2494 19.7387 12.2494 18.9776C12.2494 18.2164 11.6324 17.5994 10.8713 17.5994C10.1102 17.5994 9.49316 18.2164 9.49316 18.9776C9.49316 19.7387 10.1102 20.3557 10.8713 20.3557Z" fill="#FFCC00"/>
</svg>
