<svg width="25" height="24" viewBox="0 0 25 24" fill="none" xmlns="http://www.w3.org/2000/svg">
<path d="M18.0139 9.58173C18.4358 8.96626 18.6833 8.22282 18.6833 7.42219C18.6833 5.87626 17.7613 4.54219 16.4384 3.93844C16.5552 3.72001 16.6213 3.4711 16.6213 3.20673C16.6213 2.34704 15.9219 1.64813 15.0627 1.64813H4.95219C4.0925 1.64813 3.39359 2.34751 3.39359 3.20673C3.39359 3.4711 3.45969 3.72001 3.57641 3.93798C2.25359 4.54173 1.33203 5.87579 1.33203 7.42219C1.33203 9.36282 2.78422 10.9702 4.65875 11.2167C4.99859 13.1297 6.34297 14.7 8.12516 15.3605V17.2884H7.96672C7.10703 17.2884 6.40812 17.9874 6.40812 18.847C6.40812 18.9806 6.425 19.11 6.45687 19.2338H6.33547C5.47578 19.2338 4.77641 19.9331 4.77641 20.7928C4.77641 21.6525 5.47578 22.3514 6.33547 22.3514H13.6808C14.1256 22.3514 14.5269 22.1634 14.8114 21.8639C15.567 22.178 16.3948 22.3519 17.2625 22.3519C18.9739 22.3519 20.5831 21.6853 21.793 20.4755C23.0033 19.2652 23.6698 17.6564 23.6694 15.945C23.6694 12.6666 21.1939 9.95579 18.0139 9.58219V9.58173ZM7.30344 7.86094C7.30344 6.93563 8.05625 6.18282 8.98156 6.18282H11.0338C11.9586 6.18282 12.7114 6.93563 12.7114 7.86094V9.62016C12.7114 10.1728 12.4395 10.6898 11.9839 11.003L10.9578 11.7084C10.6737 11.9039 10.3405 12.0014 10.0077 12.0014C9.67484 12.0014 9.34109 11.9039 9.05703 11.7084L8.03094 11.003C7.57531 10.6898 7.30344 10.1728 7.30344 9.62016V7.86094ZM17.5114 7.42219C17.5114 8.32173 17.0619 9.11813 16.3756 9.59907C16.0559 9.6436 15.7433 9.71157 15.4405 9.80157V4.83094C16.6245 5.09813 17.5114 6.15844 17.5114 7.42219ZM2.50344 7.42219C2.50344 6.15844 3.39031 5.09907 4.57438 4.83141V10.013C3.39031 9.74532 2.50344 8.68594 2.50344 7.42219ZM20.9642 19.6467C19.9752 20.6353 18.6608 21.18 17.262 21.18C14.3755 21.18 12.0266 18.8316 12.0266 15.9445C12.0266 13.0575 14.375 10.7091 17.262 10.7091C20.1491 10.7091 22.4975 13.0575 22.4975 15.9445C22.4975 17.3428 21.9528 18.6577 20.9642 19.6467Z" fill="#FFCC00"/>
<path d="M17.371 15.3691C17.2412 15.3443 16.5924 15.2004 16.5924 14.7841C16.5924 14.4673 16.8929 14.2095 17.2618 14.2095C17.5351 14.2095 17.7864 14.3571 17.8862 14.5774C18.0203 14.8718 18.3676 15.0021 18.662 14.8681C18.9564 14.734 19.0867 14.3866 18.9526 14.0923C18.7417 13.6282 18.3348 13.2841 17.8473 13.129V12.6227C17.8473 12.2993 17.5848 12.0368 17.2614 12.0368C16.9379 12.0368 16.6754 12.2993 16.6754 12.6227V13.1285C15.9465 13.3615 15.4201 14.0154 15.4201 14.7841C15.4201 15.6527 16.0839 16.3179 17.1521 16.5204C17.282 16.5452 17.9307 16.6891 17.9307 17.1054C17.9307 17.4223 17.6303 17.6801 17.2614 17.6801C16.9881 17.6801 16.7368 17.5324 16.637 17.3121C16.5029 17.0177 16.1556 16.8874 15.8612 17.0215C15.5668 17.1556 15.4365 17.5029 15.5706 17.7973C15.7815 18.2609 16.1884 18.6049 16.6759 18.7601V19.2663C16.6759 19.5898 16.9384 19.8523 17.2618 19.8523C17.5853 19.8523 17.8478 19.5898 17.8478 19.2663V18.7606C18.5767 18.5281 19.1031 17.8741 19.1031 17.1054C19.1031 16.2368 18.4393 15.5712 17.371 15.3687V15.3691Z" fill="#FFCC00"/>
</svg>
