<svg width="20" height="20" viewBox="0 0 20 20" fill="none" xmlns="http://www.w3.org/2000/svg">
<path fill-rule="evenodd" clip-rule="evenodd" d="M13.6827 13.2202L13.6218 13.4178C13.5283 13.7204 13.3259 13.975 13.0514 14.133C12.7772 14.2911 12.4552 14.3386 12.1468 14.2677L11.7533 14.1772C11.5652 14.134 11.3867 14.1669 11.2347 14.2714L12.7622 16.917C12.8012 16.9849 12.9029 16.9715 12.9231 16.8959L13.3298 15.3785C13.3423 15.3318 13.3906 15.3039 13.4372 15.3164L14.9546 15.7229C15.0302 15.7432 15.0925 15.6619 15.0536 15.5942L13.6827 13.2202ZM10.0002 12.868C7.77975 12.868 5.98007 11.0682 5.98007 8.84792C5.98007 6.62777 7.77975 4.8278 10.0002 4.8278C12.2203 4.8278 14.0203 6.62777 14.0203 8.84792C14.0203 11.0682 12.2203 12.868 10.0002 12.868ZM15.5531 8.19556C15.896 8.56424 15.8946 9.13122 15.5531 9.49919L15.2774 9.79459C15.0547 10.0338 14.9722 10.3411 15.0447 10.6599L15.1359 11.0598C15.2475 11.5501 14.9636 12.0407 14.4828 12.1881L14.0969 12.3064C13.7844 12.4023 13.5594 12.627 13.4631 12.9394L13.3417 13.3315C13.1934 13.8118 12.7022 14.0948 12.2123 13.9822L11.8189 13.8917C11.5005 13.8183 11.1928 13.9004 10.9532 14.1228L10.6523 14.4017C10.2837 14.7435 9.71689 14.7429 9.34889 14.4004L9.05349 14.1254C8.81428 13.9027 8.5069 13.8199 8.18809 13.8927L7.78831 13.9838C7.29817 14.0955 6.80733 13.8115 6.65997 13.3309L6.54167 12.9451C6.44554 12.6324 6.22081 12.4073 5.90859 12.3109L5.51651 12.1898C5.03642 12.0415 4.7533 11.5503 4.86594 11.0603L4.95641 10.667C5.02968 10.3483 4.94759 10.0409 4.72532 9.80127L4.44629 9.50036C4.10434 9.13183 4.10504 8.56485 4.44752 8.19685L4.72253 7.90145C4.94548 7.6621 5.02813 7.35501 4.95542 7.03617L4.8641 6.63609C4.75242 6.14595 5.03639 5.65511 5.51715 5.5079L5.90291 5.38945C6.2155 5.29362 6.44083 5.06885 6.53721 4.75652L6.65827 4.36459C6.80645 3.88424 7.2977 3.60123 7.78754 3.71387L8.181 3.80434C8.49981 3.87761 8.80708 3.79552 9.04681 3.57325L9.34757 3.29437C9.71625 2.95242 10.2831 2.95298 10.6511 3.2956L10.9466 3.57064C11.186 3.79333 11.4931 3.87597 11.8118 3.80338L12.212 3.7122C12.7021 3.60038 13.1929 3.88435 13.3402 4.36511L13.4586 4.75087C13.5545 5.06349 13.7791 5.28867 14.0914 5.3852L14.4833 5.50611C14.9638 5.65444 15.2469 6.14581 15.1341 6.63568L15.0439 7.02914C14.9703 7.34768 15.0523 7.65507 15.2747 7.89483L15.5531 8.19556ZM12.404 8.15259C12.5184 8.06967 12.4596 7.88789 12.3181 7.88818L10.7578 7.89123C10.6933 7.89137 10.6382 7.85141 10.6184 7.79001L10.139 6.30515C10.0956 6.17033 9.90463 6.17033 9.86094 6.30515L9.38168 7.79001C9.36172 7.85141 9.30703 7.89137 9.24257 7.89123L7.68211 7.88818C7.54066 7.88792 7.48145 8.0697 7.59603 8.15259L8.86013 9.06729C8.9126 9.10517 8.9334 9.16974 8.91357 9.23118L8.42839 10.7141C8.38473 10.8481 8.53939 10.9606 8.65341 10.8776L9.91409 9.95806C9.96615 9.91992 10.0342 9.91992 10.0862 9.95806L11.3466 10.8776C11.4606 10.9606 11.6156 10.8481 11.5716 10.7141L11.0868 9.23118C11.0665 9.16977 11.0876 9.10517 11.1398 9.06729L12.404 8.15259ZM10.0002 5.12089C7.94171 5.12089 6.27298 6.78946 6.27298 8.84792C6.27298 10.9064 7.94171 12.5751 10.0002 12.5751C12.0585 12.5751 13.7273 10.9064 13.7273 8.84792C13.7273 6.78946 12.0585 5.12089 10.0002 5.12089ZM6.31869 13.2176L4.94674 15.5941C4.90749 15.6619 4.96989 15.7431 5.0455 15.7229L6.56273 15.3164C6.60955 15.3038 6.65789 15.3318 6.67028 15.3785L7.07683 16.8959C7.09708 16.9713 7.19885 16.9848 7.23811 16.917L8.76609 14.2699C8.61556 14.1679 8.43928 14.1359 8.25322 14.1783L7.85329 14.2695C7.21634 14.4146 6.57114 14.0413 6.37986 13.4167L6.31869 13.2176Z" fill="#FFCC00"/>
</svg>
