<svg width="33" height="32" viewBox="0 0 33 32" fill="none" xmlns="http://www.w3.org/2000/svg">
<g clip-path="url(#clip0_8652_624)">
<path fill-rule="evenodd" clip-rule="evenodd" d="M26.5281 5.61963L24.7067 6.6125L26.193 7.954H28.242C28.5699 7.954 28.8376 8.22232 28.8376 8.55082V13.5991C28.8376 13.955 28.5462 14.2471 28.191 14.2471H25.2896L23.756 15.2344L24.9781 16.4189H28.7083C30.0543 16.4189 31.1562 15.3148 31.1562 13.9659V8.07263C31.1562 6.72388 30.0543 5.61963 28.7083 5.61963H26.5281Z" fill="#FDB440"/>
<path fill-rule="evenodd" clip-rule="evenodd" d="M11.8878 19.4484V23.0276L16.7618 24.3106L21.6122 23.0276V19.4484L16.7783 17.5649L11.8878 19.4484Z" fill="#E6E2E6"/>
<path fill-rule="evenodd" clip-rule="evenodd" d="M9.85327 23.955V25.5958L16.5159 27.5633L22.9235 25.5958V23.955C22.9235 23.444 22.5064 23.0278 21.9965 23.0278H19.3536H13.4232H10.7786C10.2704 23.0279 9.85327 23.444 9.85327 23.955Z" fill="#FDB440"/>
<path fill-rule="evenodd" clip-rule="evenodd" d="M20.3171 23.0278C20.8271 23.0278 21.2442 23.444 21.2442 23.955V25.5958H22.9235V23.955C22.9235 23.444 22.5064 23.0278 21.9965 23.0278H20.3171Z" fill="#FE9900"/>
<path fill-rule="evenodd" clip-rule="evenodd" d="M6.15039 26.4553V31.1405C6.15039 31.6131 6.53652 32.0001 7.00827 32.0001H25.7685C26.2403 32.0001 26.6246 31.6131 26.6246 31.1405V26.4553C26.6246 25.9826 26.2403 25.5957 25.7685 25.5957H22.9235H21.2442H9.85327H7.00827C6.53652 25.5957 6.15039 25.9826 6.15039 26.4553Z" fill="#CAC0C9"/>
<path fill-rule="evenodd" clip-rule="evenodd" d="M24.2678 26.4553V31.1405C24.2678 31.6131 23.8817 32.0001 23.4099 32.0001H25.7686C26.2403 32.0001 26.6247 31.6131 26.6247 31.1405V26.4553C26.6247 25.9826 26.2403 25.5957 25.7686 25.5957H23.419C23.8872 25.6011 24.2678 25.9863 24.2678 26.4553Z" fill="#AB9FAA"/>
<path fill-rule="evenodd" clip-rule="evenodd" d="M4.79169 5.61963C3.44569 5.61963 2.34375 6.72382 2.34375 8.07263V13.9659C2.34375 15.3147 3.44569 16.4189 4.79169 16.4189H8.52187L9.744 15.2344L8.20856 14.2471H5.30894C4.95375 14.2471 4.66237 13.9551 4.66237 13.5991V8.55082C4.66237 8.22232 4.93012 7.954 5.25794 7.954H7.307L8.52187 6.73844L6.97188 5.61963H4.79169Z" fill="#FDB440"/>
<path fill-rule="evenodd" clip-rule="evenodd" d="M6.97184 5.61979L7.30696 7.9541L8.20853 14.2472L8.52178 16.419L8.54728 16.6052C8.76946 18.1529 9.8259 19.4488 11.3868 19.4488H11.8877H21.6121H22.113C23.6739 19.4488 24.7303 18.153 24.9525 16.6052L24.978 16.419L25.2895 14.2472L26.1929 7.9541L26.528 5.61979L26.794 3.7691C26.7922 3.7691 26.7922 3.7691 26.7903 3.7691L16.749 1.88379L6.70959 3.7691C6.69503 3.77098 6.94815 5.46104 6.97184 5.61979Z" fill="#FFF1C7"/>
<path fill-rule="evenodd" clip-rule="evenodd" d="M13.0044 9.94678C12.7402 10.0527 12.6729 10.3008 12.8058 10.5162L13.3194 11.2737L14.0097 12.2848L14.0607 13.5806L14.0844 14.391C14.1063 14.6629 14.3285 14.8053 14.5835 14.7523L15.4013 14.5516L16.7072 14.2303L18.0114 14.5516L18.8292 14.7523C19.0842 14.8053 19.3082 14.6629 19.3301 14.391L19.3537 13.5806L19.4029 12.2848L20.1479 11.1952L20.6069 10.5162C20.7416 10.3008 20.6724 10.0527 20.4083 9.94678L19.616 9.66753L18.3519 9.22222L17.5104 8.21291L16.9841 7.57959C16.9057 7.49378 16.8074 7.44272 16.7072 7.43359C16.6052 7.44272 16.5068 7.49384 16.4303 7.57959L15.9021 8.21291L15.0626 9.22222L13.7967 9.66753L13.0044 9.94678Z" fill="#FDB440"/>
<path fill-rule="evenodd" clip-rule="evenodd" d="M17.7472 8.49805C17.4539 10.763 16.7545 12.8109 15.7637 14.4625L16.7072 14.2307L18.0113 14.552L18.8291 14.7527C19.0841 14.8057 19.3081 14.6633 19.33 14.3914L19.3537 13.581L19.4029 12.2852L20.1478 11.1955L20.6068 10.5166C20.7415 10.3012 20.6724 10.053 20.4082 9.94717L19.6159 9.66792L18.3519 9.22261L17.7472 8.49805Z" fill="#FE9900"/>
<path fill-rule="evenodd" clip-rule="evenodd" d="M19.5996 21.6662V23.0278H20.3172H21.6122V21.2392V19.4487H19.5996H11.8878V20.876H17.8856C19.0294 20.8759 19.5832 20.8011 19.5996 21.6662Z" fill="#CAC0C9"/>
<path fill-rule="evenodd" clip-rule="evenodd" d="M5.22705 2.28325C5.22705 3.09906 5.89186 3.76525 6.70599 3.76894H6.70961H26.7904H26.794C27.6082 3.76531 28.2729 3.09913 28.2729 2.28325V1.48569C28.2731 0.668 27.6046 0 26.7904 0H24.0875H9.41261H6.70968C5.89368 0 5.22705 0.668 5.22705 1.48569V2.28325Z" fill="#FDB440"/>
<path fill-rule="evenodd" clip-rule="evenodd" d="M24.6867 2.28325C24.6867 3.09906 24.0219 3.76525 23.2096 3.76894H26.7905H26.7941C27.6083 3.76531 28.273 3.09913 28.273 2.28325V1.48569C28.273 0.668 27.6046 0 26.7904 0H24.0875H23.2041C24.0201 0 24.6867 0.668 24.6867 1.48569V2.28325Z" fill="#FE9900"/>
<path fill-rule="evenodd" clip-rule="evenodd" d="M6.70959 3.78542C6.72234 3.95879 6.95003 5.47004 6.97185 5.61967H21.8016C23.4773 5.59592 23.3024 6.10879 23.082 7.64011L21.7998 16.5832C21.6559 17.5779 21.2023 18.4905 20.4592 18.9997C20.0494 19.2808 19.5613 19.4469 19.0094 19.4487H19.5995H21.6122H22.113C23.674 19.4487 24.7303 18.1529 24.9526 16.6052L24.9781 16.419L25.2895 14.2471L26.193 7.95404L26.5281 5.61973L26.794 3.76904C26.7922 3.76904 26.7922 3.76904 26.7904 3.76904C20.104 3.76898 13.4087 3.78542 6.70959 3.78542Z" fill="#FFE287"/>
<path fill-rule="evenodd" clip-rule="evenodd" d="M29.5754 8.07263V13.9659C29.5754 15.3147 28.4734 16.4189 27.1256 16.4189H28.7084C30.0544 16.4189 31.1564 15.3148 31.1564 13.9659V8.07263C31.1564 6.72388 30.0544 5.61963 28.7084 5.61963H27.1256C28.4734 5.61963 29.5754 6.72382 29.5754 8.07263Z" fill="#FE9900"/>
<path d="M9.96629 29.2852C9.69779 29.2853 9.4801 29.0674 9.4801 28.7986C9.48004 28.5298 9.69766 28.3119 9.96616 28.3119L22.8106 28.3101C23.0791 28.31 23.2968 28.5279 23.2968 28.7967C23.2969 29.0655 23.0792 29.2834 22.8107 29.2834L9.96629 29.2852Z" fill="#9C8F9A"/>
</g>
<defs>
<clipPath id="clip0_8652_624">
<rect width="32" height="32" fill="white" transform="translate(0.75)"/>
</clipPath>
</defs>
</svg>
