<svg width="32" height="32" viewBox="0 0 32 32" fill="none" xmlns="http://www.w3.org/2000/svg">
<path d="M23.3639 20.5156C23.1002 20.5156 22.8424 20.4315 22.6231 20.274C22.4039 20.1165 22.233 19.8927 22.132 19.6308C22.0311 19.3689 22.0047 19.0807 22.0562 18.8026C22.1076 18.5246 22.2346 18.2692 22.4211 18.0687C22.6075 17.8683 22.8451 17.7318 23.1038 17.6765C23.3624 17.6212 23.6305 17.6496 23.8741 17.758C24.1178 17.8665 24.326 18.0502 24.4725 18.2859C24.619 18.5217 24.6972 18.7988 24.6972 19.0823C24.6972 19.4624 24.5567 19.827 24.3067 20.0958C24.0567 20.3646 23.7175 20.5156 23.3639 20.5156ZM8.63611 20.5156C8.3724 20.5156 8.11462 20.4315 7.89535 20.274C7.67609 20.1165 7.50519 19.8927 7.40427 19.6308C7.30335 19.3689 7.27695 19.0807 7.3284 18.8026C7.37984 18.5246 7.50683 18.2692 7.6933 18.0687C7.87977 17.8683 8.11735 17.7318 8.37599 17.6765C8.63463 17.6212 8.90272 17.6496 9.14636 17.758C9.38999 17.8665 9.59823 18.0502 9.74474 18.2859C9.89125 18.5217 9.96944 18.7988 9.96944 19.0823C9.96944 19.4624 9.82897 19.827 9.57892 20.0958C9.32887 20.3646 8.98973 20.5156 8.63611 20.5156ZM23.8417 11.8869L26.505 6.92999C26.5474 6.8621 26.5763 6.78559 26.5901 6.70518C26.6038 6.62477 26.6021 6.54219 26.5849 6.46254C26.5678 6.3829 26.5356 6.30788 26.4904 6.24215C26.4452 6.17641 26.3879 6.12136 26.3221 6.08039C26.2563 6.03942 26.1833 6.01342 26.1078 6.00399C26.0322 5.99456 25.9557 6.0019 25.8829 6.02556C25.8101 6.04922 25.7426 6.08869 25.6846 6.14153C25.6265 6.19438 25.5792 6.25947 25.5456 6.33277L22.8489 11.3536C20.6948 10.3151 18.3608 9.77815 16 9.77815C13.6392 9.77815 11.3052 10.3151 9.15111 11.3536L6.45444 6.33277C6.42077 6.25947 6.37345 6.19438 6.31543 6.14153C6.2574 6.08869 6.1899 6.04922 6.1171 6.02556C6.04431 6.0019 5.96777 5.99456 5.89223 6.00399C5.81669 6.01342 5.74375 6.03942 5.67794 6.08039C5.61212 6.12136 5.55484 6.17641 5.50962 6.24215C5.46441 6.30788 5.43223 6.3829 5.41508 6.46254C5.39793 6.54219 5.39617 6.62477 5.40992 6.70518C5.42367 6.78559 5.45263 6.8621 5.495 6.92999L8.15833 11.8869C3.585 14.5607 0.457778 19.5373 0 25.417H32C31.5422 19.5373 28.4144 14.5607 23.8417 11.8869Z" fill="white"/>
</svg>
