<svg width="48" height="48" viewBox="0 0 48 48" fill="none" xmlns="http://www.w3.org/2000/svg">
<path d="M0 24C0 37.2548 10.7452 48 24 48C37.2548 48 48 37.2548 48 24C48 10.7452 37.2548 0 24 0C10.7452 0 0 10.7452 0 24Z" fill="#00B25B"/>
<path d="M24 14.9999C23.7699 14.9999 23.5395 15.0879 23.3637 15.2636L14.3637 24.2636C14.0121 24.6153 14.0121 25.1848 14.3637 25.5362C14.7154 25.8877 15.2849 25.8879 15.6363 25.5362L24 17.1725L32.3637 25.5362C32.7154 25.8879 33.2849 25.8879 33.6363 25.5362C33.9878 25.1846 33.988 24.6151 33.6363 24.2636L24.6363 15.2636C24.4606 15.0879 24.2302 14.9999 24 14.9999ZM24.6363 22.4636L33.6363 31.4636C33.988 31.8153 33.988 32.3848 33.6363 32.7362C33.2847 33.0877 32.7152 33.0879 32.3637 32.7362L24 24.3725L15.6363 32.7362C15.2847 33.0879 14.7152 33.0879 14.3637 32.7362C14.0123 32.3846 14.0121 31.8151 14.3637 31.4636L23.3637 22.4636C23.5395 22.2879 23.7699 22.1999 24 22.1999C24.2302 22.1999 24.4606 22.2879 24.6363 22.4636Z" fill="white"/>
</svg>
