<svg width="24" height="24" viewBox="0 0 24 24" fill="none" xmlns="http://www.w3.org/2000/svg">
<path d="M12 19.5C11.8082 19.5 11.6162 19.4267 11.4698 19.2803L3.9698 11.7803C3.67673 11.4872 3.67673 11.0127 3.9698 10.7198C4.26286 10.4269 4.73742 10.4267 5.0303 10.7198L12 17.6895L18.9698 10.7198C19.2629 10.4267 19.7374 10.4267 20.0303 10.7198C20.3232 11.0129 20.3234 11.4874 20.0303 11.7803L12.5303 19.2803C12.3839 19.4267 12.1919 19.5 12 19.5ZM12.5303 13.2803L20.0303 5.7803C20.3234 5.48723 20.3234 5.01267 20.0303 4.7198C19.7372 4.42692 19.2627 4.42673 18.9698 4.7198L12 11.6895L5.0303 4.7198C4.73723 4.42673 4.26267 4.42673 3.9698 4.7198C3.67692 5.01286 3.67673 5.48742 3.9698 5.7803L11.4698 13.2803C11.6162 13.4267 11.8082 13.5 12 13.5C12.1919 13.5 12.3839 13.4267 12.5303 13.2803Z" fill="white"/>
</svg>
