<svg width="24" height="24" viewBox="0 0 24 24" fill="none" xmlns="http://www.w3.org/2000/svg">
<path d="M13.2414 6.62071C13.2414 6.19616 13.1975 5.78195 13.1205 5.37933H11.8494C11.9445 5.77864 12 6.19285 12 6.62071C12 7.04857 11.9445 7.46278 11.8498 7.86209H13.121C13.1975 7.45947 13.2414 7.04526 13.2414 6.62071Z" fill="white"/>
<path d="M12.5032 2.06897C13.0713 2.80138 13.5062 3.63931 13.7706 4.55173H15.3886C15.079 3.61366 14.5643 2.76994 13.8989 2.06897H12.5032Z" fill="white"/>
<path d="M10.701 10.116L11.5783 10.9933C12.1651 10.3291 12.6215 9.54913 12.9053 8.68927H11.5845C11.366 9.21272 11.0652 9.69189 10.701 10.116Z" fill="white"/>
<path d="M14.986 2.06897C15.5541 2.80138 15.989 3.63931 16.2534 4.55173H17.8713C17.5618 3.61366 17.0471 2.76994 16.3817 2.06897H14.986Z" fill="white"/>
<path d="M17.4688 2.06897C18.0369 2.80138 18.4718 3.63931 18.7362 4.55173H20.3541C20.0446 3.61366 19.5299 2.76994 18.8645 2.06897H17.4688Z" fill="white"/>
<path d="M10.116 10.7011C9.6919 11.0652 9.21273 11.3661 8.6897 11.585V12.9058C9.54956 12.6219 10.3291 12.1655 10.9937 11.5788L10.116 10.7011Z" fill="white"/>
<path d="M14.4365 10.5397C14.8565 9.96991 15.1784 9.34798 15.3948 8.68964H13.7707C13.1959 10.6713 11.8209 12.3124 10.0176 13.2414H11.1907C11.986 12.0558 13.1123 11.1116 14.4365 10.5397Z" fill="white"/>
<path d="M10.701 3.1254C11.0652 3.54953 11.366 4.02871 11.5849 4.55174H12.9057C12.6219 3.69188 12.1655 2.91229 11.5787 2.24774L10.701 3.1254Z" fill="white"/>
<path d="M13.884 13.2989C14.3081 12.9348 14.7873 12.634 15.3103 12.4151V11.0942C14.4505 11.3781 13.6709 11.8345 13.0063 12.4213L13.884 13.2989Z" fill="white"/>
<path d="M18.9224 5.37933C18.9906 5.78402 19.0345 6.19699 19.0345 6.62071C19.0345 7.03947 18.9952 7.45368 18.9265 7.86209H20.5688C20.6458 7.45616 20.6897 7.04195 20.6897 6.62071C20.6897 6.19616 20.6458 5.78195 20.5688 5.37933H18.9224Z" fill="white"/>
<path d="M17.8725 8.68964H16.2558C16.1114 9.19033 15.9186 9.67529 15.6703 10.1367C16.1995 10.0117 16.7486 9.93929 17.3143 9.93433C17.5439 9.53833 17.7306 9.12164 17.8725 8.68964Z" fill="white"/>
<path d="M0.335571 8.68964C0.619433 9.5495 1.07585 10.3291 1.66261 10.9936L2.53985 10.1164C2.17612 9.69184 1.8753 9.21267 1.6564 8.68964H0.335571Z" fill="white"/>
<path d="M4.55176 11.585C4.02872 11.3661 3.54955 11.0652 3.12541 10.7011L2.24817 11.5784C2.91231 12.1651 3.69231 12.6215 4.55217 12.9054V11.585H4.55176Z" fill="white"/>
<path d="M15.6041 7.86209C15.6806 7.45657 15.7241 7.04237 15.7241 6.62071C15.7241 6.19616 15.6802 5.78195 15.6033 5.37933H13.9568C14.0251 5.78402 14.0689 6.19699 14.0689 6.62071C14.0689 7.04444 14.0251 7.4574 13.9568 7.86209H15.6041Z" fill="white"/>
<path d="M11.1724 6.62069C11.1724 4.11104 9.13035 2.06897 6.62069 2.06897C4.11104 2.06897 2.06897 4.11104 2.06897 6.62069C2.06897 9.13035 4.11104 11.1724 6.62069 11.1724C9.13035 11.1724 11.1724 9.13035 11.1724 6.62069ZM9.51725 6.01035C9.51725 6.39766 9.348 6.76593 9.0538 7.01793L6.62069 9.10345L4.21987 7.04566C3.90538 6.77587 3.72414 6.38194 3.72414 5.96773V5.92925C3.72414 5.57711 3.864 5.23987 4.11269 4.99076C4.39366 4.7098 4.77518 4.55173 5.17242 4.55173C5.56966 4.55173 5.95118 4.7098 6.23214 4.99076L6.62069 5.37931L7.00924 4.99076C7.29021 4.7098 7.67173 4.55173 8.06897 4.55173C8.46621 4.55173 8.84773 4.7098 9.12869 4.99076C9.37738 5.23945 9.51725 5.57711 9.51725 5.92883V6.01035Z" fill="white"/>
<path d="M21.2214 8.68964C21.0311 9.34922 20.7526 9.98067 20.3831 10.5691C20.7373 10.7259 21.0757 10.9105 21.3985 11.1186C22.0569 10.411 22.5455 9.58674 22.8397 8.68964H21.2214Z" fill="white"/>
<path d="M5.37927 11.8498V13.121C5.78189 13.1975 6.1961 13.2414 6.62065 13.2414C7.0452 13.2414 7.45941 13.1975 7.86203 13.1205V11.8494C7.46272 11.9445 7.04851 12 6.62065 12C6.19279 12 5.77858 11.9445 5.37927 11.8498Z" fill="white"/>
<path d="M13.2989 13.884L12.4216 13.0068C11.8349 13.6709 11.3785 14.4509 11.0946 15.3108H12.4154C12.6339 14.7873 12.9347 14.3082 13.2989 13.884Z" fill="white"/>
<path d="M21.7522 12.4213C21.0881 11.8345 20.3081 11.3781 19.4482 11.0942V12.4151C19.9713 12.634 20.4504 12.9348 20.8746 13.2989L21.7522 12.4213Z" fill="white"/>
<path d="M20.3603 8.68964H18.7424C18.6137 9.13571 18.4403 9.5677 18.2301 9.98315C18.6977 10.0365 19.1537 10.1296 19.5911 10.2658C19.918 9.77212 20.1782 9.24412 20.3603 8.68964Z" fill="white"/>
<path d="M18.6207 12.1502V10.879C18.2181 10.8025 17.8039 10.7586 17.3793 10.7586C16.9548 10.7586 16.5406 10.8025 16.1379 10.8794V12.1506C16.5372 12.0554 16.9515 12 17.3793 12C17.8072 12 18.2214 12.0554 18.6207 12.1502Z" fill="white"/>
<path d="M18.0869 7.86209C18.1643 7.45492 18.2069 7.03989 18.2069 6.62071C18.2069 6.19616 18.163 5.78195 18.0861 5.37933H16.4396C16.5079 5.78402 16.5517 6.19699 16.5517 6.62071C16.5517 7.04113 16.5161 7.45575 16.4487 7.86209H18.0869Z" fill="white"/>
<path d="M21.2189 4.55173H22.8368C22.5273 3.61366 22.0125 2.76994 21.3471 2.06897H19.9514C20.5196 2.80138 20.9545 3.63931 21.2189 4.55173Z" fill="white"/>
<path d="M4.55168 1.6564V0.335571C3.69182 0.619433 2.91223 1.07626 2.24768 1.66261L3.12492 2.53985C3.54947 2.17612 4.02865 1.8753 4.55168 1.6564Z" fill="white"/>
<path d="M13.0063 22.3374C13.6705 22.9241 14.4505 23.3805 15.3103 23.6644V22.3436C14.7873 22.1247 14.3081 21.8239 13.884 21.4597L13.0063 22.3374Z" fill="white"/>
<path d="M12.4151 19.4483H11.0942C11.3781 20.3082 11.8345 21.0878 12.4213 21.7523L13.2985 20.8751C12.9348 20.4505 12.634 19.9713 12.4151 19.4483Z" fill="white"/>
<path d="M1.39159 7.86209C1.29683 7.46278 1.24138 7.04857 1.24138 6.62071C1.24138 6.19285 1.29683 5.77864 1.39159 5.37933H0.120828C0.0438621 5.78195 0 6.19616 0 6.62071C0 7.04526 0.0438621 7.45947 0.120828 7.86209H1.39159Z" fill="white"/>
<path d="M0 14.069V20.6897H10.7168C10.2186 19.6908 9.93104 18.5694 9.93104 17.3793C9.93104 16.1892 10.2186 15.0679 10.7168 14.069H0Z" fill="white"/>
<path d="M12 17.3793C12 16.9515 12.0555 16.5372 12.1503 16.1379H10.8791C10.8025 16.5406 10.7587 16.9548 10.7587 17.3793C10.7587 17.8039 10.8025 18.2181 10.8795 18.6207H12.1507C12.0555 18.2214 12 17.8072 12 17.3793Z" fill="white"/>
<path d="M23.8792 16.1379H22.608C22.7032 16.5372 22.7587 16.9515 22.7587 17.3793C22.7587 17.8072 22.7032 18.2214 22.6084 18.6207H23.8796C23.9562 18.2181 24 17.8039 24 17.3793C24 16.9548 23.9562 16.5406 23.8792 16.1379Z" fill="white"/>
<path d="M21.4597 20.8746L22.337 21.7519C22.9237 21.0877 23.3801 20.3077 23.664 19.4479H22.3432C22.1247 19.9713 21.8239 20.4505 21.4597 20.8746Z" fill="white"/>
<path d="M19.4482 22.3436V23.6644C20.3081 23.3806 21.0877 22.9241 21.7522 22.3374L20.875 21.4601C20.4504 21.8239 19.9713 22.1247 19.4482 22.3436Z" fill="white"/>
<path d="M16.1379 22.6084V23.8796C16.5406 23.9562 16.9548 24 17.3793 24C17.8039 24 18.2181 23.9562 18.6207 23.8792V22.608C18.2214 22.7032 17.8072 22.7587 17.3793 22.7587C16.9515 22.7587 16.5372 22.7032 16.1379 22.6084Z" fill="white"/>
<path d="M2.54026 3.12535L1.66302 2.24811C1.07626 2.91225 0.619433 3.69183 0.335571 4.55169H1.6564C1.8753 4.02866 2.17612 3.54949 2.54026 3.12535Z" fill="white"/>
<path d="M21.5173 6.62071C21.5173 7.04071 21.4805 7.45533 21.4126 7.86209H23.0537C23.1298 7.45699 23.1725 7.04237 23.1725 6.62071C23.1725 6.19616 23.1286 5.78195 23.0516 5.37933H21.4052C21.4734 5.78402 21.5173 6.19699 21.5173 6.62071Z" fill="white"/>
<path d="M20.3967 1.24137C19.5984 0.66909 18.6695 0.271849 17.6627 0.100952C18.2267 0.412952 18.7435 0.799021 19.2066 1.24137H20.3967Z" fill="white"/>
<path d="M17.3794 21.931C19.889 21.931 21.9311 19.889 21.9311 17.3793C21.9311 14.8696 19.889 12.8276 17.3794 12.8276C14.8697 12.8276 12.8276 14.8696 12.8276 17.3793C12.8276 19.889 14.8697 21.931 17.3794 21.931ZM14.7398 17.2225C14.5755 17.0578 14.4828 16.8347 14.4828 16.6018C14.4828 16.1172 14.8759 15.7241 15.3605 15.7241C15.5934 15.7241 15.8165 15.8164 15.9812 15.9811C15.8169 15.8164 15.7242 15.5934 15.7242 15.3604C15.7242 14.8759 16.1173 14.4827 16.6018 14.4827C16.8348 14.4827 17.0578 14.575 17.2225 14.7397L17.3794 14.8965L17.5362 14.7397C17.7009 14.575 17.9239 14.4827 18.1569 14.4827C18.6414 14.4827 19.0345 14.8759 19.0345 15.3604C19.0345 15.5934 18.9418 15.8164 18.7776 15.9811C18.9423 15.8164 19.1653 15.7241 19.3983 15.7241C19.8828 15.7241 20.2759 16.1172 20.2759 16.6018C20.2759 16.8347 20.1832 17.0578 20.0189 17.2225L19.8621 17.3793L20.0189 17.5361C20.1836 17.7008 20.2759 17.9239 20.2759 18.1568C20.2759 18.6414 19.8828 19.0345 19.3983 19.0345C19.1653 19.0345 18.9423 18.9418 18.7776 18.7775C18.9423 18.9422 19.0345 19.1652 19.0345 19.3982C19.0345 19.8827 18.6414 20.2759 18.1569 20.2759C17.9239 20.2759 17.7009 20.1832 17.5362 20.0189L17.3794 19.8621L17.2225 20.0189C17.0583 20.1832 16.8348 20.2759 16.6018 20.2759C16.1173 20.2759 15.7242 19.8827 15.7242 19.3982C15.7242 19.1652 15.8169 18.9422 15.9812 18.7775C15.8169 18.9418 15.5934 19.0345 15.3605 19.0345C14.8759 19.0345 14.4828 18.6414 14.4828 18.1568C14.4828 17.9239 14.5755 17.7008 14.7398 17.5361L14.8966 17.3793L14.7398 17.2225Z" fill="white"/>
<path d="M17.914 1.24137C17.1158 0.66909 16.1868 0.271849 15.1801 0.100952C15.7441 0.412952 16.2609 0.799021 16.7239 1.24137H17.914Z" fill="white"/>
<path d="M23.6644 15.3103C23.3805 14.4505 22.9241 13.6709 22.3373 13.0063L21.4601 13.8836C21.8242 14.3077 22.125 14.7869 22.3439 15.3099L23.6644 15.3103Z" fill="white"/>
<path d="M10.9937 1.66261C10.3291 1.07626 9.54956 0.619433 8.6897 0.335571V1.6564C9.21273 1.8753 9.6919 2.17612 10.116 2.54026L10.9937 1.66261Z" fill="white"/>
<path d="M15.4312 1.24137C14.633 0.66909 13.704 0.271849 12.6973 0.100952C13.2613 0.412952 13.7781 0.799021 14.2411 1.24137H15.4312Z" fill="white"/>
<path d="M7.86203 1.39159V0.120828C7.45941 0.0438621 7.0452 0 6.62065 0C6.1961 0 5.78189 0.0438621 5.37927 0.120828V1.392C5.77858 1.29683 6.19279 1.24138 6.62065 1.24138C7.04851 1.24138 7.46272 1.29683 7.86203 1.39159Z" fill="white"/>
<path d="M12.9484 1.24137C12.1502 0.66909 11.2212 0.271849 10.2145 0.100952C10.7785 0.412952 11.2953 0.799021 11.7583 1.24137H12.9484Z" fill="white"/>
</svg>
