<svg width="24" height="24" viewBox="0 0 24 24" fill="none" xmlns="http://www.w3.org/2000/svg">
<path d="M20.153 23.1176H18.8118L16.4824 20.0823C19.4118 18.4941 21.4236 15.3882 21.4236 11.8235C21.4236 7.55292 18.4942 3.84704 14.4706 2.78822V1.65881C14.4706 0.847041 13.8 0.176453 12.9883 0.176453H11.1883C10.3765 0.176453 9.70592 0.847041 9.70592 1.65881V2.75292C5.68239 3.74116 2.64709 7.48234 2.64709 11.8235C2.64709 15.3882 4.65886 18.5294 7.62357 20.0823L5.29415 23.1176H3.91768C3.70592 23.1176 3.56474 23.2588 3.56474 23.4706C3.56474 23.6823 3.70592 23.8235 3.91768 23.8235H20.1883C20.4 23.8235 20.5412 23.6823 20.5412 23.4706C20.5412 23.2588 20.3294 23.1176 20.153 23.1176ZM10.3765 1.65881C10.3765 1.23528 10.7294 0.882335 11.153 0.882335H12.953C13.3765 0.882335 13.7294 1.23528 13.7294 1.65881V2.61175C13.5177 2.57645 13.3059 2.54116 13.0942 2.50586C13.0942 2.43528 13.0942 2.36469 13.0942 2.32939C13.0942 1.76469 12.6353 1.27057 12.0353 1.27057C11.4353 1.27057 10.9765 1.76469 10.9765 2.32939V2.50586C10.7647 2.54116 10.553 2.54116 10.3412 2.57645V1.65881H10.3765ZM5.6118 14.0823L9.74121 12.8823C9.8118 13.0588 9.91768 13.2353 10.0589 13.3765L7.09415 16.4823C6.42357 15.7765 5.92945 14.9647 5.6118 14.0823ZM13.6942 11.7176C13.7647 12.7765 12.9177 13.5882 11.9294 13.5882C10.9412 13.5882 10.1647 12.6353 10.2 11.7882C10.2353 11.0117 10.8353 10.1647 11.8589 10.0941C12.7412 9.98822 13.6589 10.7294 13.6942 11.7176ZM6.84709 7.41175L9.95298 10.4117C9.8471 10.5882 9.74121 10.7294 9.67062 10.9412L5.50592 9.88234C5.78827 8.96469 6.24709 8.11763 6.84709 7.41175ZM11.7883 14.2941H11.9647C12.1059 14.2941 12.2118 14.2941 12.353 14.2588C13.5883 18.4588 13.5177 18.3176 13.553 18.4235C12.6353 18.6353 11.6824 18.6706 10.7294 18.4941C11.4353 15.6706 10.6589 18.8117 11.7883 14.2941ZM17.1177 16.2353L13.9765 13.2353C14.0824 13.0941 14.153 12.9176 14.2589 12.7412L18.4942 13.7647C18.2118 14.6823 17.753 15.5294 17.1177 16.2353ZM14.1883 10.8353C14.1177 10.6588 14.0118 10.4823 13.9059 10.3412L16.9412 7.16469C17.5765 7.87057 18.1059 8.68233 18.3883 9.56469L14.1883 10.8353ZM12.2471 9.38822C12.1059 9.38822 11.9294 9.38822 11.7883 9.38822L10.553 5.18822C10.8706 5.11763 11.2236 5.04704 11.5412 5.04704C11.6118 5.36469 11.6824 5.61175 11.7177 5.75292C11.753 5.92939 11.8942 6.03528 12.0706 6.03528C12.2471 6.03528 12.3883 5.92939 12.4236 5.75292C12.4589 5.61175 12.5294 5.36469 12.6 5.04704C12.8471 5.08233 13.0942 5.08234 13.3412 5.15292L12.2471 9.38822ZM3.31768 11.8235C3.31768 7.34116 6.84709 3.56469 11.1177 3.21175C11.1883 3.56469 11.2942 3.98822 11.3647 4.37645C7.20004 4.76469 4.4118 8.25881 4.48239 12.0353C4.58827 16.0588 7.87062 19.3412 11.9647 19.3412C16.2353 19.3412 19.4118 15.8117 19.4471 11.8941C19.4471 8.11763 16.553 4.6941 12.7059 4.41175C12.8118 4.02351 12.8824 3.63528 12.953 3.28234C17.153 3.70586 20.6471 7.41175 20.6471 11.8941C20.6471 16.6941 16.7294 20.5765 11.9647 20.5765C7.23533 20.5059 3.31768 16.6235 3.31768 11.8235Z" fill="white"/>
</svg>
