<svg width="20" height="20" viewBox="0 0 20 20" fill="none" xmlns="http://www.w3.org/2000/svg">
<path d="M10 16.25C9.8402 16.25 9.6802 16.1889 9.55816 16.0669L3.30816 9.81685C3.06395 9.57263 3.06395 9.17717 3.30816 8.9331C3.55238 8.68904 3.94785 8.68888 4.19191 8.9331L10 14.7412L15.8082 8.9331C16.0524 8.68888 16.4479 8.68888 16.6919 8.9331C16.936 9.17732 16.9361 9.57279 16.6919 9.81685L10.4419 16.0669C10.3199 16.1889 10.1599 16.25 10 16.25ZM10.4419 11.0669L16.6919 4.81685C16.9361 4.57263 16.9361 4.17717 16.6919 3.9331C16.4477 3.68904 16.0522 3.68888 15.8082 3.9331L10 9.74123L4.19191 3.9331C3.9477 3.68888 3.55223 3.68888 3.30816 3.9331C3.0641 4.17732 3.06395 4.57279 3.30816 4.81685L9.55816 11.0669C9.6802 11.1889 9.8402 11.25 10 11.25C10.1599 11.25 10.3199 11.1889 10.4419 11.0669Z" fill="white"/>
</svg>
