<svg width="24" height="24" viewBox="0 0 24 24" fill="none" xmlns="http://www.w3.org/2000/svg">
<path d="M20.4577 18.9305H3.53895C2.77009 18.9305 2.14685 19.5537 2.14685 20.3226C2.14685 21.0914 2.77009 21.7147 3.53895 21.7147H20.4577C21.2266 21.7147 21.8498 21.0914 21.8498 20.3226C21.8498 19.5537 21.2266 18.9305 20.4577 18.9305Z" fill="white"/>
<path d="M11.7742 4.91809C11.7863 4.92035 11.7976 4.92186 11.8097 4.92337C11.8716 4.93243 11.9342 4.93846 11.9983 4.93846C12.0625 4.93846 12.1251 4.93243 12.187 4.92337C12.199 4.92186 12.2111 4.92035 12.2224 4.91809C12.2843 4.90753 12.3454 4.89319 12.4043 4.87433C12.9385 4.70305 13.3248 4.2028 13.3248 3.61125C13.3248 2.8786 12.731 2.28479 11.9983 2.28479C11.2657 2.28479 10.6719 2.8786 10.6719 3.61125C10.6719 4.26693 11.1487 4.81095 11.7742 4.91734V4.91809Z" fill="white"/>
<path d="M1.35589 9.96362C1.40342 9.96287 1.44945 9.95909 1.49547 9.95306C1.49698 9.95306 1.49774 9.95306 1.49925 9.95306C1.54452 9.94702 1.58828 9.93872 1.63204 9.92891C1.6328 9.92891 1.63431 9.92891 1.63506 9.92891C1.67882 9.91835 1.72183 9.90552 1.76408 9.89119C2.28169 9.7101 2.65292 9.2189 2.65292 8.64018C2.65292 7.90753 2.0591 7.31372 1.32646 7.31372C0.593813 7.31372 0 7.90527 0 8.63792C0 9.37056 0.593813 9.96437 1.32646 9.96437C1.33627 9.96437 1.34532 9.96287 1.35513 9.96287L1.35589 9.96362Z" fill="white"/>
<path d="M22.6734 7.3113C21.9407 7.3113 21.3469 7.90511 21.3469 8.63776C21.3469 9.16895 21.6601 9.62619 22.1113 9.83821C22.1512 9.85708 22.1927 9.87443 22.2358 9.88877C22.2358 9.88877 22.2365 9.88877 22.2373 9.88877C22.2788 9.9031 22.3218 9.91593 22.3655 9.92649C22.367 9.92649 22.3678 9.92649 22.3693 9.92725C22.4131 9.93781 22.4568 9.94536 22.5013 9.95139C22.5029 9.95139 22.5036 9.95139 22.5051 9.95139C22.5511 9.95743 22.5979 9.96045 22.6447 9.96196C22.6545 9.96196 22.6636 9.96346 22.6734 9.96346C23.406 9.96346 23.9998 9.36965 23.9998 8.63701C23.9998 7.90436 23.406 7.31055 22.6734 7.31055V7.3113Z" fill="white"/>
<path d="M18.0853 13.0208C15.6014 13.0208 13.4661 9.91139 12.5207 5.45667C12.3547 5.50345 12.1796 5.53061 11.9985 5.53061C11.8174 5.53061 11.6424 5.50345 11.4764 5.45667C10.5302 9.91215 8.39566 13.0208 5.91175 13.0208C4.50607 13.0208 3.21356 12.0218 2.18363 10.3513C1.94369 10.472 1.67508 10.5437 1.39062 10.5535C1.59435 13.3226 2.27946 15.8774 3.3192 18.0301H20.6778C21.7176 15.8774 22.4027 13.3234 22.6064 10.5535C22.322 10.5437 22.0533 10.4728 21.8127 10.3513C20.7827 12.0226 19.4902 13.0208 18.0845 13.0208H18.0853Z" fill="white"/>
<path d="M1.35589 9.96362C1.40342 9.96287 1.44945 9.95909 1.49547 9.95306C1.49698 9.95306 1.49774 9.95306 1.49925 9.95306C1.54452 9.94702 1.58828 9.93872 1.63204 9.92891C1.6328 9.92891 1.63431 9.92891 1.63506 9.92891C1.67882 9.91835 1.72183 9.90552 1.76408 9.89119C2.28169 9.7101 2.65292 9.2189 2.65292 8.64018C2.65292 7.90753 2.0591 7.31372 1.32646 7.31372C0.593813 7.31372 0 7.90527 0 8.63792C0 9.37056 0.593813 9.96437 1.32646 9.96437C1.33627 9.96437 1.34532 9.96287 1.35513 9.96287L1.35589 9.96362Z" fill="white"/>
<path d="M22.6734 7.3113C21.9407 7.3113 21.3469 7.90511 21.3469 8.63776C21.3469 9.16895 21.6601 9.62619 22.1113 9.83821C22.1512 9.85708 22.1927 9.87443 22.2358 9.88877C22.2358 9.88877 22.2365 9.88877 22.2373 9.88877C22.2788 9.9031 22.3218 9.91593 22.3655 9.92649C22.367 9.92649 22.3678 9.92649 22.3693 9.92725C22.4131 9.93781 22.4568 9.94536 22.5013 9.95139C22.5029 9.95139 22.5036 9.95139 22.5051 9.95139C22.5511 9.95743 22.5979 9.96045 22.6447 9.96196C22.6545 9.96196 22.6636 9.96346 22.6734 9.96346C23.406 9.96346 23.9998 9.36965 23.9998 8.63701C23.9998 7.90436 23.406 7.31055 22.6734 7.31055V7.3113Z" fill="white"/>
<path d="M20.6801 18.0293C21.7198 15.8766 22.4049 13.3226 22.6087 10.5527C22.3242 10.5429 22.0556 10.472 21.8149 10.3505C20.785 12.0218 19.4925 13.02 18.0868 13.02C15.6029 13.02 13.4676 9.9106 12.5221 5.45587C12.3561 5.50265 12.1811 5.52982 12 5.52982V18.0286H20.6793L20.6801 18.0293Z" fill="white"/>
<path d="M12.1886 4.9241C12.2007 4.9226 12.2128 4.92109 12.2241 4.91882C12.286 4.90826 12.3471 4.89392 12.4059 4.87506C12.9401 4.70378 13.3265 4.20353 13.3265 3.61198C13.3265 2.87934 12.7326 2.28552 12 2.28552V4.93844C12.0641 4.93844 12.1268 4.9324 12.1886 4.92335V4.9241Z" fill="white"/>
<path d="M16.7459 9.01153C16.7542 9.01304 16.7625 9.0138 16.77 9.01531C16.8123 9.02134 16.8553 9.02587 16.8998 9.02587C16.9443 9.02587 16.9866 9.02134 17.0288 9.01531C17.0371 9.0138 17.0454 9.01304 17.0537 9.01153C17.096 9.00399 17.1382 8.99493 17.1782 8.98211C17.5442 8.8644 17.809 8.52184 17.809 8.11666C17.809 7.61415 17.4016 7.20746 16.8998 7.20746C16.398 7.20746 15.9906 7.6149 15.9906 8.11666C15.9906 8.56636 16.3173 8.93834 16.7459 9.01229V9.01153Z" fill="white"/>
<path d="M6.94595 9.01153C6.95425 9.01304 6.96255 9.0138 6.9701 9.01531C7.01235 9.02134 7.05536 9.02587 7.09988 9.02587C7.1444 9.02587 7.18665 9.02134 7.2289 9.01531C7.2372 9.0138 7.2455 9.01304 7.2538 9.01153C7.29606 9.00399 7.33755 8.99493 7.3783 8.98211C7.74424 8.8644 8.00908 8.52184 8.00908 8.11666C8.00908 7.61415 7.60239 7.20746 7.09988 7.20746C6.59736 7.20746 6.19067 7.6149 6.19067 8.11666C6.19067 8.56636 6.51738 8.93834 6.94595 9.01229V9.01153Z" fill="white"/>
<path d="M8.06564 11.417C7.82118 10.8028 7.61444 10.1199 7.4575 9.38049C7.34356 9.41294 7.22359 9.43105 7.09985 9.43105C6.97611 9.43105 6.85614 9.41294 6.7422 9.38049C6.49246 10.5568 6.12123 11.5958 5.66248 12.4288C5.74925 12.4378 5.833 12.4439 5.91222 12.4439C6.65543 12.4439 7.38883 12.0787 8.06564 11.4177V11.417Z" fill="white"/>
<path d="M18.3375 12.4295C17.8787 11.5958 17.5075 10.5568 17.2578 9.38049C17.1438 9.41294 17.0239 9.43105 16.9001 9.43105C16.7764 9.43105 16.6564 9.41294 16.5425 9.38049C16.3855 10.1199 16.1788 10.8028 15.9343 11.4177C16.6111 12.0787 17.3445 12.4439 18.0877 12.4439C18.1723 12.4439 18.256 12.4386 18.3383 12.4303L18.3375 12.4295Z" fill="white"/>
</svg>
